<svg xmlns="http://www.w3.org/2000/svg" viewBox="0 0 32 32">
  <circle cx="16" cy="16" r="16" fill="#F7931A"/>
  <path d="M22.5 13.8c.3-2.1-1.3-3.2-3.5-4l.7-2.8-1.7-.4-.7 2.7c-.5-.1-.9-.2-1.4-.3l.7-2.8-1.7-.4-.7 2.8c-.4-.1-.8-.2-1.2-.2v0l-2.3-.6-.4 1.8s1.3.3 1.2.3c.7.2.8.6.8.9l-.8 3.3c0 0 .1 0 .1.1-.1 0-.1-.1-.2-.1l-1.1 4.5c-.1.2-.3.5-.7.4 0 0-1.2-.3-1.2-.3l-.9 2 2.2.5c.4.1.8.2 1.2.3l-.7 2.9 1.7.4.7-2.8c.5.1 1 .3 1.4.4l-.7 2.8 1.7.4.7-2.9c2.9.5 5.1.3 6-2.3.7-2-.1-3.2-1.5-3.9 1-.3 1.8-1 2-2.5zm-3.6 5c-.5 2-3.9 1-5 .7l.9-3.5c1.1.3 4.6.8 4.1 2.8zm.5-5c-.5 1.8-3.3 1-4.3.7l.8-3.2c1 .2 4.1.7 3.5 2.5z" fill="white"/>
</svg>
